<?xml version="1.0" standalone="no"?><!DOCTYPE svg PUBLIC "-//W3C//DTD SVG 1.1//EN" "http://www.w3.org/Graphics/SVG/1.1/DTD/svg11.dtd"><svg t="1492935394434" class="icon" style="" viewBox="0 0 1024 1024" version="1.1" xmlns="http://www.w3.org/2000/svg" p-id="6938" xmlns:xlink="http://www.w3.org/1999/xlink" width="38" height="38"><defs><style type="text/css"></style></defs><path d="M928.324892 170.231964 926.597181 477.348835C926.597181 477.348835 921.446578 643.742811 743.053804 643.742811L492.582719 643.742811 381.055005 758.677753 564.597175 760.389802 816.764647 1021.147633 825.405613 753.544016C825.405613 753.544016 1022.673083 767.252451 1022.673083 592.268112L1022.673083 333.222327C1022.673083 333.222327 1031.27911 228.587386 928.324892 170.231964L928.324892 170.231964ZM710.42007 600.839197C801.409226 600.839197 875.118864 527.129559 875.118864 436.172932L875.118867 168.55365C875.118867 77.597023 801.409226 3.853648 710.42007 3.853648L166.638136 3.853649C75.681508 3.853649 1.939339 77.597023 1.939339 168.553651L1.939339 436.174134C1.939339 527.130762 75.681508 600.840403 166.638136 600.840403L180.463438 600.840403 182.092354 844.46691 454.232117 600.840403 710.42007 600.840403 710.42007 600.839197Z" p-id="6939" fill="#ffffff"></path></svg>