<?xml version="1.0" standalone="no"?><!DOCTYPE svg PUBLIC "-//W3C//DTD SVG 1.1//EN" "http://www.w3.org/Graphics/SVG/1.1/DTD/svg11.dtd"><svg t="1492953001838" class="icon" style="" viewBox="0 0 1024 1024" version="1.1" xmlns="http://www.w3.org/2000/svg" p-id="2833" xmlns:xlink="http://www.w3.org/1999/xlink" width="40" height="40"><defs><style type="text/css"></style></defs><path d="M136.881395 582.042673C105.283891 660.747166 100.055877 735.792174 125.505197 749.734376 143.110624 759.409882 170.522476 737.273424 196.324652 697.005371 206.562483 741.107468 231.796099 780.678535 267.879746 812.666302 230.095405 827.394015 205.341824 851.451858 205.341824 878.645512 205.341824 923.447088 272.193824 959.616766 354.645082 959.616766 429.034251 959.616766 490.658237 930.244878 502.029448 891.545353L519.724649 891.545353C531.317799 930.244878 592.807126 959.616766 667.283574 959.616766 749.825851 959.616766 816.588078 923.445841 816.588078 878.645512 816.588078 851.451858 791.878137 827.56982 754.00527 812.666302 789.960491 780.678535 815.367419 741.108715 825.520464 697.005371 851.316407 737.273424 878.60108 759.411128 896.295034 749.734376 921.872778 735.792174 916.774437 660.747166 884.873949 582.042673 859.949551 520.419933 826.17381 474.923865 800.417767 464.727181 800.766883 460.980416 801.071113 456.837156 801.071113 452.872194 801.071113 428.990156 794.709719 406.939732 783.860934 388.983941 784.079132 387.547576 784.079132 386.195999 784.079132 384.758389 784.079132 373.732552 781.592926 363.490981 777.323735 354.64338 770.830175 194.228255 671.598899 66.673685 510.923182 66.673685 350.287364 66.673685 250.926417 194.229501 244.432857 354.644627 240.250944 363.621899 237.678706 373.908357 237.678706 384.890554 237.678706 386.329411 237.678706 387.678495 237.853265 389.1186 227.221431 406.942225 220.857542 428.991403 220.857542 452.96072 220.857542 456.971815 221.073247 460.980416 221.337578 464.902986 195.67006 475.011145 161.764648 520.42118 136.881395 582.042673" p-id="2834"></path></svg>